# xmcd
#
# Track frame offsets: 
#        300
#        23637
#        46194
#        71771
#        94718
#        115497
#        132794
#        154027
#        178946
#        203047
#        223740
#        243612
#        270799
#
# Disc length: 3721 seconds
#
# Revision: 0
# Processed by: cddbd v1.5.2PL0 Copyright (c) Steve Scherf et al.
# Submitted via: ExactAudioCopy v1.0b1
#
DISCID=b60e850d
DTITLE=Blues Company - O Town Grooves
DYEAR=2010
DGENRE=Blues Rock
TTITLE0=Blues Go Away
TTITLE1=Homeward Bound
TTITLE2=(I'm Just An) Old Blues Singer
TTITLE3=I'm Scared To Move
TTITLE4=Keep On Tryin'
TTITLE5=Things Won?t Be The Same
TTITLE6=Slaves To The Money
TTITLE7=Blues In A Bottle
TTITLE8=Ol' What's Her Name
TTITLE9=Last Train Home
TTITLE10=Walk That Way
TTITLE11=3 Flies On An Empty Plate
TTITLE12=Slaves To The Money (Slight Return)
EXTD=
EXTT0=
EXTT1=
EXTT2=
EXTT3=
EXTT4=
EXTT5=
EXTT6=
EXTT7=
EXTT8=
EXTT9=
EXTT10=
EXTT11=
EXTT12=
PLAYORDER=
